<svg xmlns="http://www.w3.org/2000/svg" width="632.667" height="93.333" viewBox="83.834 151.166 632.667 93.333"><path fill="#0C226E" d="M703.087 220.533l-22.372-44.535c-1.983-4.366-7.695-4.207-9.838 0l-22.769 44.535c-1.587 3.334 0 6.191 2.538 7.621 2.856.555 5.792 0 7.061-2.699l3.412-6.986h29.274l3.49 6.986c2.857 6.191 12.457 1.27 9.204-4.922zm-37.05-12.543l9.759-19.608 8.965 19.608h-18.724zM611.094 223.312c0 6.747 10.473 6.589 10.473 0v-45.329c0-6.748-10.473-6.51-10.473 0v45.329zM572.652 212.356c-1.19 11.272-17.93 7.938-24.436 3.493-2.697-2.223-4.998-1.509-7.061.555-1.428 2.145-1.508 5.637 1.11 7.78 10.948 9.05 40.144 8.573 40.698-11.59.556-21.117-33.955-13.654-31.813-26.673 1.666-8.256 14.994-6.51 20.865-2.779 4.76 3.493 10.472-3.413 5.077-7.779-10.948-8.415-34.193-5.637-36.018 9.764-2.457 22.546 30.546 15.48 31.578 27.229zM504.142 212.356c-1.189 11.272-17.929 7.938-24.435 3.493-2.697-2.223-4.998-1.509-7.061.555-1.428 2.145-1.508 5.637 1.11 7.78 10.948 9.05 40.144 8.573 40.698-11.59.556-21.117-33.955-13.654-31.813-26.673 1.666-8.256 14.994-6.51 20.865-2.779 4.76 3.493 10.472-3.413 5.077-7.779-10.948-8.415-34.193-5.637-36.018 9.764-2.458 22.546 30.545 15.48 31.577 27.229zM440.947 228.154c7.775 0 7.22-10.4 0-10.4H416.75v-11.907h19.993c7.061 0 7.061-10.399 0-10.399H416.75V183.54h22.849c7.141 0 7.299-10.32 0-10.32h-28.481c-2.775 0-4.918 2.064-4.918 4.922v45.091c0 2.777 2.143 4.922 4.918 4.922h29.829zM378.07 219.818l-10.551-12.86c16.819-6.748 12.693-33.738-7.458-33.738h-21.103c-2.618 0-4.76 2.064-4.76 4.842v45.09c0 6.986 10.551 6.748 10.551-.158v-14.369h12.456l11.979 17.147c4.761 6.034 13.012.16 8.886-5.954zm-18.008-20.322H344.75v-16.671h15.312c10.948 0 10.313 16.671 0 16.671zM287.744 172.505h-18.326c-3.332 0-5.395 2.858-5.395 5.478v44.693c0 3.494 2.776 5.479 5.395 5.479 2.856 0 5.078-1.984 5.078-5.479v-10.479h13.249c10.313 0 19.596-6.985 19.596-19.528-.002-13.257-9.284-20.164-19.597-20.164zm0 29.769h-13.249v-19.767h13.249c5.315 0 9.52 4.604 9.52 10.161 0 4.923-4.205 9.606-9.52 9.606zM202.415 209.975c2.618 3.493 6.188 3.493 9.044 0l13.17-16.67v29.372c0 3.494 2.221 5.479 5.077 5.479 2.539 0 4.76-1.984 4.76-5.479v-44.693c0-5.478-6.426-6.748-9.044-3.493l-18.088 24.451-17.454-23.577c-1.349-1.508-2.698-2.858-4.998-2.858-1.27 0-4.76 1.35-4.76 5.478v44.693c0 3.494 2.221 5.479 4.76 5.479 2.856 0 5.712-1.984 5.712-5.479v-29.372l11.821 16.669zM120.757 217.077h26.285a5.307 5.307 0 110 10.616h-26.285a5.309 5.309 0 010-10.616z"></path><circle fill="#ED3947" cx="102.304" cy="222.385" r="5.308"></circle><linearGradient id="a" gradientUnits="userSpaceOnUse" x1="-18.944" y1="487.794" x2="-19.924" y2="487.794" gradientTransform="matrix(36.8997 0 0 -10.6154 832.89 5378.338)"><stop offset="0" stop-color="#97e6f5"></stop><stop offset="1" stop-color="#74dbef"></stop></linearGradient><path fill="url(#a)" d="M102.308 194.923h26.284a5.308 5.308 0 010 10.616h-26.284a5.307 5.307 0 110-10.616z"></path><path fill="#0C226E" d="M102.308 172.769h44.734a5.308 5.308 0 010 10.616h-44.734a5.308 5.308 0 010-10.616z"></path></svg>